<?xml version="1.0" encoding="UTF-8"?>
<svg xmlns="http://www.w3.org/2000/svg" xmlns:xlink="http://www.w3.org/1999/xlink" width="110px" height="110px" viewBox="0 0 110 110" version="1.1">
<g id="surface1">
<path style="fill-rule:nonzero;fill:rgb(0%,0%,0%);fill-opacity:1;stroke-width:16;stroke-linecap:butt;stroke-linejoin:miter;stroke:rgb(100%,80.000001%,0%);stroke-opacity:1;stroke-miterlimit:4;" d="M 362.997154 1974.999971 C 290.980109 1944.034062 264.985792 1830.965882 315.980109 1771.022701 C 389.98579 1683.025543 529.971583 1724.005656 529.971583 1833.025541 L 529.971583 1874.005654 L 575.99431 1829.971564 C 633.025559 1774.005655 694.034081 1653.977248 713.991467 1558.025545 C 747.017034 1396.022706 744.03408 1373.011343 699.99999 1458.025546 C 640.980104 1570.028386 546.022719 1629.971567 427.982948 1629.971567 C 296.022723 1629.971567 200.994315 1539.985773 199.999997 1416.974411 C 199.999997 1360.014184 208.025565 1340.980094 408.025562 920.028395 C 700.994308 302.98295 737.00283 232.031247 792.968738 172.017043 C 859.019874 101.988635 905.965896 80.965908 990.980099 79.97159 C 1040.980098 79.97159 1067.968734 86.008521 1108.025552 105.965908 C 1212.002823 157.031248 1213.991459 161.00852 1562.002818 889.985782 C 1783.025542 1350.994298 1783.025542 1352.982934 1784.01986 1421.022706 C 1786.008496 1625.994294 1503.97725 1705.965884 1348.011344 1544.034068 C 1326.988617 1523.011341 1298.011344 1482.031228 1283.025549 1452.982933 C 1266.974413 1424.005661 1251.988618 1399.999979 1248.011345 1399.999979 C 1228.977254 1399.999979 1283.025549 1627.98293 1321.022708 1704.971566 C 1349.99998 1764.985769 1436.647706 1874.573836 1454.119297 1870.52554 C 1456.392024 1870.028381 1457.031228 1857.031222 1453.977251 1840.980086 C 1441.97441 1785.014178 1505.965887 1720.028383 1572.017022 1720.028383 C 1639.985771 1720.028383 1704.971566 1794.034064 1696.022702 1862.997131 C 1678.977248 2008.025538 1503.97725 2034.019856 1367.96873 1912.002812 C 1241.974413 1798.011337 1175.994301 1621.022703 1162.997142 1364.985775 C 1160.014187 1295.02839 1151.988619 1234.019868 1144.034074 1217.968732 C 1110.014188 1151.988619 1017.826689 1029.04828 997.869303 1029.04828 C 981.88919 1029.04828 894.034078 1125.994301 855.965896 1187.997141 C 823.011351 1244.034072 822.017033 1248.011345 816.97442 1385.014184 C 811.008511 1546.022704 784.019875 1655.965884 722.017035 1773.011337 C 635.014195 1939.985767 480.965902 2025.994288 362.997154 1974.999971 Z M 450.142039 1877.201677 C 473.153402 1856.17895 463.565334 1834.090882 448.153402 1819.176109 C 412.14488 1786.221564 365.198858 1832.244291 394.17613 1872.230086 C 412.357948 1894.957358 430.610789 1893.96304 450.142039 1877.201677 Z M 1594.034067 1884.019858 C 1615.624976 1862.002813 1613.991453 1830.965882 1585.014181 1817.968723 C 1554.971568 1804.971564 1530.184636 1821.0227 1529.971568 1853.977245 C 1529.829523 1883.593722 1573.01134 1904.829517 1594.034067 1884.019858 Z M 517.968742 1513.991455 C 547.017037 1499.999978 570.028401 1485.014182 570.028401 1479.971569 C 570.028401 1475.994296 551.988628 1470.028387 528.977265 1465.980092 C 473.011357 1457.031228 401.98863 1419.03407 358.025563 1374.99998 L 321.022722 1337.002821 L 310.0142 1363.991457 C 284.019882 1432.031229 310.0142 1498.011341 374.005676 1525.994295 C 421.022721 1546.022704 461.008516 1542.968727 517.968742 1513.991455 Z M 1636.008498 1513.991455 C 1663.991452 1495.028387 1689.98577 1450.994297 1689.98577 1421.022706 C 1689.98577 1404.97157 1674.005657 1357.03123 1662.997134 1340.980094 C 1662.002816 1338.991457 1649.005657 1351.988616 1634.019862 1369.034071 C 1598.01134 1412.00282 1535.014182 1447.017024 1465.980092 1462.997137 C 1410.014184 1474.999978 1409.019865 1475.994296 1428.977251 1494.034069 C 1479.971569 1539.985773 1580.965886 1549.999977 1636.008498 1513.991455 Z M 655.965899 1349.005662 C 674.005672 1312.99714 674.005672 1310.014185 651.988627 1310.014185 C 603.977264 1310.014185 535.014197 1274.005663 475.994311 1220.028391 L 413.991471 1162.002824 L 391.974426 1200.9943 C 371.022722 1236.008504 371.022722 1241.974413 384.019881 1267.968731 C 417.968744 1334.019866 482.031243 1375.994298 570.028401 1388.991457 C 620.0284 1397.017025 634.019877 1389.985775 655.965899 1349.005662 Z M 1489.985773 1367.96873 C 1540.980091 1346.022707 1575.994295 1316.974412 1596.022703 1277.982936 C 1614.985771 1241.974413 1613.991453 1230.965891 1589.985772 1191.974414 L 1569.034068 1158.025551 L 1530.965886 1201.988618 C 1486.008501 1252.982936 1411.008502 1296.022708 1351.988616 1305.96589 C 1328.977253 1310.014185 1310.014185 1313.991458 1310.014185 1315.980094 C 1310.014185 1319.034071 1322.017026 1337.997139 1336.008503 1359.019866 C 1360.014184 1396.022706 1362.997139 1398.011343 1402.982934 1392.968729 C 1425.994297 1389.985775 1464.985774 1378.977252 1489.985773 1367.96873 Z M 737.997148 1202.982937 C 749.005671 1187.002823 769.105102 1156.605096 780.113625 1134.588051 C 792.116465 1111.576688 840.980101 1049.005666 891.974419 995.028394 C 967.968736 915.9801 988.991463 899.005668 1004.971576 903.977259 C 1037.997144 915.9801 1179.971573 1082.031234 1222.017027 1159.019869 C 1262.99714 1233.02555 1267.968731 1236.008504 1328.977253 1224.005664 C 1370.028389 1214.985777 1375.142025 1212.144868 1321.022708 1191.974414 C 1266.051117 1172.58521 1226.065323 1128.55112 1210.014187 1095.028393 C 1187.286914 1046.661916 1185.014187 1009.019871 1210.014187 961.008508 C 1245.028391 890.9801 1322.017026 851.988624 1395.028388 865.980101 C 1413.991456 869.034078 1429.97157 870.028396 1429.97157 866.974419 C 1429.97157 864.985783 1395.028388 788.991466 1351.988616 699.005671 C 1309.019867 609.019877 1249.999981 483.025561 1221.022709 420.028403 C 1125.994301 210.014201 1034.019871 141.97443 922.017032 199.005679 C 876.988623 222.017042 860.014192 239.985792 824.00567 304.971586 C 787.997147 370.028404 560.014196 850.994306 560.014196 862.002828 C 560.014196 866.974419 574.999991 867.968737 594.034082 863.991464 C 658.025558 852.982942 742.968739 898.01135 774.999988 961.008508 C 794.034079 997.017031 794.034079 1062.997143 775.994307 1099.005665 C 754.97158 1137.997142 697.017035 1187.002823 661.008513 1195.028391 C 599.147718 1217.329527 616.406241 1220.667595 691.974422 1228.977254 C 711.008512 1229.971573 724.999989 1222.017027 737.997148 1202.982937 Z M 709.019876 1103.977256 C 783.025557 1041.974416 705.965899 934.019872 621.022718 979.971576 C 590.980105 996.022712 574.999991 1045.028394 588.991468 1078.977257 C 612.002832 1132.031233 662.997149 1142.968733 709.019876 1103.977256 Z M 1383.025548 1102.982938 C 1407.031229 1079.971575 1404.97157 1022.01703 1377.982934 992.968735 C 1350.994298 963.991463 1298.011344 962.002827 1270.02839 989.985781 C 1248.011345 1012.002826 1244.034072 1060.014189 1261.008504 1090.980097 C 1282.031231 1130.965892 1344.034071 1137.002824 1383.025548 1102.982938 Z M 1383.025548 1102.982938 " transform="matrix(0.055,0,0,-0.055,0,110)"/>
<path style=" stroke:none;fill-rule:nonzero;fill:rgb(100%,90.196079%,50.196081%);fill-opacity:1;" d="M 52.109375 99.523438 C 49.089844 98.417969 47.558594 96.957031 45.488281 93.207031 C 43.316406 89.277344 31.050781 63.398438 31.050781 62.753906 C 31.050781 62.582031 31.792969 62.511719 33.554688 62.515625 L 36.058594 62.523438 L 37.917969 61.601562 C 41.949219 59.605469 43.839844 56.488281 43.472656 52.449219 C 43.277344 50.300781 42.820312 49.25 41.414062 47.714844 C 39.714844 45.863281 38.394531 44.929688 36.324219 44.121094 C 35.371094 43.75 34.597656 43.351562 34.609375 43.234375 C 34.632812 42.988281 35.492188 42.792969 37.40625 42.601562 C 39.269531 42.414062 39.867188 42.832031 41.339844 45.355469 C 43.960938 49.832031 45.742188 52.082031 50.445312 56.84375 C 53.800781 60.242188 54.578125 60.738281 55.667969 60.171875 C 57.570312 59.1875 64.84375 50.605469 67.066406 46.71875 C 69.320312 42.78125 69.835938 42.332031 71.796875 42.582031 C 73.421875 42.792969 74.535156 43.121094 74.453125 43.371094 C 74.414062 43.488281 73.515625 43.941406 72.460938 44.378906 C 71.40625 44.8125 70.195312 45.382812 69.769531 45.644531 C 67.285156 47.183594 65.066406 51.730469 65.476562 54.457031 C 65.707031 56.003906 67.125 58.59375 68.398438 59.800781 C 70.78125 62.050781 72.855469 62.761719 76.339844 62.523438 L 78.523438 62.375 L 77.707031 64.144531 C 77.257812 65.117188 75.242188 69.394531 73.230469 73.648438 C 71.214844 77.902344 69.023438 82.578125 68.351562 84.035156 C 64.0625 93.371094 61.148438 97.585938 57.851562 99.203125 C 56.222656 100.003906 53.796875 100.136719 52.109375 99.523438 Z M 52.109375 99.523438 "/>
<path style=" stroke:none;fill-rule:nonzero;fill:rgb(100%,90.196079%,50.196081%);fill-opacity:1;" d="M 85.089844 44.863281 C 84.441406 44.117188 83.699219 43.296875 83.4375 43.046875 C 81.835938 41.5 79.769531 40.113281 77.730469 39.214844 C 76.367188 38.617188 75.542969 38.367188 73.890625 38.054688 C 72.558594 37.800781 72.109375 37.679688 72.109375 37.566406 C 72.109375 37.355469 74.027344 34.425781 74.488281 33.929688 C 74.863281 33.527344 75.0625 33.414062 75.527344 33.332031 C 76.101562 33.234375 77.566406 33.425781 78.914062 33.777344 C 82.023438 34.589844 84.488281 35.867188 86.09375 37.496094 C 86.90625 38.316406 87.386719 38.984375 87.910156 40.035156 C 88.621094 41.449219 88.632812 42.21875 87.957031 43.492188 C 87.699219 43.984375 86.328125 46.222656 86.289062 46.226562 C 86.277344 46.226562 85.734375 45.613281 85.089844 44.863281 Z M 85.089844 44.863281 "/>
<path style=" stroke:none;fill-rule:nonzero;fill:rgb(100%,90.196079%,50.196081%);fill-opacity:1;" d="M 91.417969 36.242188 C 91.25 36.175781 90.550781 35.472656 89.789062 34.597656 C 88.621094 33.257812 87.078125 32.109375 85.175781 31.160156 C 83.621094 30.382812 82.023438 29.824219 80.261719 29.449219 C 79.074219 29.191406 78.519531 29.042969 78.234375 28.90625 C 77.921875 28.757812 77.875 28.617188 78.0625 28.371094 C 78.164062 28.238281 78.507812 27.910156 78.800781 27.664062 C 80.625 26.140625 83.59375 25.332031 86.398438 25.589844 C 87.746094 25.710938 89.015625 26.117188 89.929688 26.710938 C 90.867188 27.316406 91.882812 28.59375 92.449219 29.871094 L 92.507812 30.007812 L 92.507812 33.792969 L 92.429688 34.027344 C 92.144531 34.882812 91.789062 35.714844 91.535156 36.121094 C 91.449219 36.257812 91.453125 36.253906 91.417969 36.242188 Z M 91.417969 36.242188 "/>
<path style=" stroke:none;fill-rule:nonzero;fill:rgb(100%,90.196079%,50.196081%);fill-opacity:1;" d="M 21.8125 44.226562 C 20.664062 42.199219 20.5625 41.625 21.152344 40.460938 C 23.105469 36.589844 26.703125 34.292969 31.882812 33.613281 C 33.386719 33.414062 34.105469 33.5625 34.851562 34.214844 C 35.425781 34.71875 36.773438 37.246094 36.644531 37.578125 C 36.585938 37.734375 36.253906 37.828125 35.542969 37.894531 C 34.121094 38.027344 32.773438 38.472656 30.992188 39.394531 C 29.019531 40.417969 27.621094 41.464844 25.035156 43.859375 C 23.882812 44.921875 22.894531 45.8125 22.839844 45.832031 C 22.785156 45.851562 22.324219 45.132812 21.8125 44.226562 Z M 21.8125 44.226562 "/>
<path style=" stroke:none;fill-rule:nonzero;fill:rgb(100%,90.196079%,50.196081%);fill-opacity:1;" d="M 17.238281 35.183594 C 16.378906 32.929688 16.386719 31.179688 17.269531 29.292969 C 18.078125 27.5625 19.847656 26.234375 22.105469 25.652344 C 23.382812 25.324219 25.03125 25.441406 26.46875 25.960938 C 27.828125 26.449219 30.234375 27.6875 30.875 28.226562 L 31.355469 28.632812 L 30.917969 28.800781 C 30.675781 28.894531 29.792969 29.125 28.949219 29.3125 C 25.222656 30.140625 21.976562 31.953125 19.230469 34.738281 C 18.417969 35.566406 17.726562 36.242188 17.695312 36.242188 C 17.664062 36.242188 17.460938 35.765625 17.238281 35.183594 Z M 17.238281 35.183594 "/>
<path style=" stroke:none;fill-rule:nonzero;fill:rgb(100%,90.196079%,50.196081%);fill-opacity:1;" d="M 85.558594 10.167969 C 84.769531 9.957031 84.25 9.222656 84.179688 8.222656 C 84.140625 7.628906 84.324219 7.15625 84.765625 6.707031 C 85.667969 5.800781 86.992188 5.691406 87.710938 6.464844 C 88.121094 6.910156 88.363281 7.394531 88.441406 7.925781 C 88.535156 8.59375 88.226562 9.289062 87.652344 9.699219 C 87.023438 10.148438 86.179688 10.335938 85.558594 10.167969 Z M 85.558594 10.167969 "/>
<path style=" stroke:none;fill-rule:nonzero;fill:rgb(100%,90.196079%,50.196081%);fill-opacity:1;" d="M 22.632812 10.421875 C 22.4375 10.363281 22.140625 10.179688 21.929688 9.992188 C 20.996094 9.152344 21.011719 7.78125 21.972656 6.792969 C 22.421875 6.328125 22.800781 6.136719 23.265625 6.132812 C 23.960938 6.128906 24.894531 6.757812 25.277344 7.484375 C 25.507812 7.925781 25.503906 8.550781 25.265625 9.042969 C 25.007812 9.585938 24.371094 10.1875 23.859375 10.378906 C 23.375 10.558594 23.109375 10.570312 22.632812 10.421875 Z M 22.632812 10.421875 "/>
<path style="fill-rule:nonzero;fill:rgb(100%,100%,100%);fill-opacity:1;stroke-width:0.133333;stroke-linecap:butt;stroke-linejoin:miter;stroke:rgb(100%,80.000001%,0%);stroke-opacity:1;stroke-miterlimit:4;" d="M 87.471591 136.335227 C 86.25 136.221591 84.943182 135.833333 83.75 135.236742 C 82.708333 134.715909 82.111742 134.261364 81.439394 133.465909 C 80.340909 132.168561 79.573864 130.539773 79.176136 128.655303 C 79.024621 127.954545 79.005682 127.746212 79.005682 126.534091 C 78.996212 125.445076 79.024621 125.085227 79.119318 124.659091 C 79.640152 122.291667 81.363636 119.782197 83.314394 118.551136 C 84.36553 117.888258 85.501894 117.537879 86.789773 117.49053 C 88.996212 117.395833 91.278409 118.267045 93.532197 120.075758 C 96.893939 122.755682 98.153409 126.410985 96.960227 130 C 96.486742 131.429924 95.757576 132.604167 94.6875 133.683712 C 93.125 135.255682 91.221591 136.145833 89.034091 136.344697 C 88.238636 136.410985 88.229167 136.410985 87.471591 136.335227 Z M 87.471591 136.335227 " transform="matrix(0.4125,0,0,0.4125,0,0)"/>
<path style="fill-rule:nonzero;fill:rgb(100%,100%,100%);fill-opacity:1;stroke-width:0.0942809;stroke-linecap:butt;stroke-linejoin:miter;stroke:rgb(100%,80.000001%,0%);stroke-opacity:1;stroke-miterlimit:4;" d="M 175.170455 136.174242 C 173.494318 136.003788 171.846591 135.350379 170.653409 134.38447 C 169.242424 133.238636 168.333333 131.429924 167.954545 129.015152 C 167.82197 128.162879 167.80303 126.193182 167.926136 125.397727 C 168.267045 123.267045 168.967803 121.581439 170.028409 120.369318 C 171.221591 119.005682 173.153409 118.058712 175.3125 117.80303 C 175.890152 117.727273 177.215909 117.736742 177.840909 117.82197 C 179.857955 118.087121 181.837121 118.929924 183.380682 120.170455 C 186.212121 122.452652 186.25947 129.109848 183.475379 132.859848 C 182.130682 134.67803 179.933712 135.861742 177.386364 136.164773 C 176.780303 136.231061 175.767045 136.24053 175.170455 136.174242 Z M 175.170455 136.174242 " transform="matrix(0.4125,0,0,0.4125,0,0)"/>
</g>
</svg>
