<?xml version="1.0" encoding="UTF-8" standalone="no"?>
<svg
   version="1.0"
   width="200.000000pt"
   height="200.000000pt"
   viewBox="0 0 200.000000 200.000000"
   preserveAspectRatio="xMidYMid meet"
   id="svg1"
   sodipodi:docname="vocabug_logox.svg"
   inkscape:version="1.4 (86a8ad7, 2024-10-11)"
   xmlns:inkscape="http://www.inkscape.org/namespaces/inkscape"
   xmlns:sodipodi="http://sodipodi.sourceforge.net/DTD/sodipodi-0.dtd"
   xmlns="http://www.w3.org/2000/svg"
   xmlns:svg="http://www.w3.org/2000/svg">
  <defs
     id="defs1" />
  <sodipodi:namedview
     id="namedview1"
     pagecolor="#ffffff"
     bordercolor="#000000"
     borderopacity="0.25"
     inkscape:showpageshadow="2"
     inkscape:pageopacity="0.0"
     inkscape:pagecheckerboard="0"
     inkscape:deskcolor="#d1d1d1"
     inkscape:document-units="pt"
     inkscape:zoom="4"
     inkscape:cx="158.375"
     inkscape:cy="135.375"
     inkscape:window-width="1920"
     inkscape:window-height="1088"
     inkscape:window-x="-5"
     inkscape:window-y="-5"
     inkscape:window-maximized="1"
     inkscape:current-layer="svg1" />
  <g
     id="g8"
     style="stroke-width:1.6;stroke-dasharray:none;stroke:#ffcc00;paint-order:stroke fill markers">
    <g
       transform="translate(0.000000,200.000000) scale(0.100000,-0.100000)"
       fill="#000000"
       stroke="none"
       id="g1"
       style="stroke-width:15.99999998;stroke-dasharray:none;stroke:#ffcc00;paint-order:stroke fill markers">
      <path
         d="m 363,1975 c -72,-31 -98,-144 -47,-204 74,-88 214,-47 214,62 v 41 l 46,-44 c 57,-56 118,-176 138,-272 33,-162 30,-185 -14,-100 -59,112 -154,172 -272,172 -132,0 -227,-90 -228,-213 0,-57 8,-76 208,-497 293,-617 329,-688 385,-748 66,-70 113,-91 198,-92 50,0 77,6 117,26 104,51 106,55 454,784 221,461 221,463 222,531 2,205 -280,285 -436,123 -21,-21 -50,-62 -65,-91 -16,-29 -31,-53 -35,-53 -19,0 35,228 73,305 29,60 115.6123,169.5619 133.1505,165.5109 C 1456.3624,1870 1457,1857 1454,1841 c -12,-56 52,-121 118,-121 68,0 133,74 124,143 -17,145 -192,171 -328,49 -126,-114 -192,-291 -205,-547 -3,-70 -11,-131 -19,-147 -34,-66 -126.1406,-188.9375 -146.14063,-188.9375 C 981.85937,1029.0625 894,1126 856,1188 c -33,56 -34,60 -39,197 -6,161 -33,271 -95,388 -87,167 -241,253 -359,202 z m 87.17439,-97.7902 c 23,-21 13.36492,-43.1284 -2,-58 -36,-33 -83,13 -54,53 18.1703,22.7643 36.44959,21.7207 56,5 z M 1594,1884 c 21.6158,-21.9782 20,-53 -9,-66 -30,-13 -54.8099,3.0005 -55,36 -0.1703,29.5681 42.9823,50.8256 64,30 z M 518,1514 c 29,-14 52,-29 52,-34 0,-4 -18,-10 -41,-14 -56,-9 -127,-47 -171,-91 l -37,-38 -11,27 c -26,68 0,134 64,162 47,20 87,17 144,-12 z m 1118,0 c 28,-19 54,-63 54,-93 0,-16 -16,-64 -27,-80 -1,-2 -14,11 -29,28 -36,43 -99,78 -168,94 -56,12 -57,13 -37,31 51,46 152,56 207,20 z M 656,1349 c 18,-36 18,-39 -4,-39 -48,0 -117,-36 -176,-90 l -62,-58 -22,39 c -21,35 -21,41 -8,67 34,66 98,108 186,121 50,8 64,1 86,-40 z m 834,19 c 51,-22 86,-51 106,-90 19,-36 18,-47 -6,-86 l -21,-34 -38,44 c -45,51 -120,94 -179,104 -23,4 -42,8 -42,10 0,3 12,22 26,43 24,37 27,39 67,34 23,-3 62,-14 87,-25 z M 738,1203 c 11,-16 31.10937,-46.4141 42.10937,-68.4141 C 792.10937,1111.5859 841,1049 892,995 c 76,-79 97,-96 113,-91 33,12 175,178 217,255 41,74 46,77 107,65 41,-9 46.1526,-11.8692 -8,-32 -54.9701,-19.4253 -94.9666,-63.4165 -111,-97 -22.6798,-48.3709 -25,-86 0,-134 35,-70 112,-109 185,-95 19,3 35,4 35,1 0,-2 -35,-78 -78,-168 -43,-90 -102,-216 -131,-279 -95,-210 -187,-278 -299,-221 -45,23 -62,41 -98,106 -36,65 -264,546 -264,557 0,5 15,6 34,2 64,-11 149,34 181,97 19,36 19,102 1,138 -21,39 -79,88 -115,96 -61.87445,22.3195 -44.59697,25.7015 31,34 19,1 33,-7 46,-26 z m -29,-99 c 74,-62 -3,-170 -88,-124 -30,16 -46,65 -32,99 23,53 74,64 120,25 z m 674,-1 c 24,-23 22,-81 -5,-110 -27,-29 -80,-31 -108,-3 -22,22 -26,70 -9,101 21,40 83,46 122,12 z"
         id="path1"
         sodipodi:nodetypes="ccsccccscccccccccscscsccccsccccccccccsccscccccccsccccccsccccccccccccscccccccccccccssccsscccccccccccsscc"
         style="stroke:#ffcc00;stroke-width:16;stroke-dasharray:none;paint-order:stroke fill markers" />
    </g>
  </g>
  <path
     style="fill:#ffe680;stroke-width:0.513792"
     d="m 126.32615,241.2652 c -7.31979,-2.67371 -11.03265,-6.21493 -16.05488,-15.31272 -5.25846,-9.52573 -35.000684,-72.25628 -35.000684,-73.82139 0,-0.41899 1.801183,-0.59069 6.073576,-0.57898 l 6.073577,0.0166 4.508499,-2.23295 c 9.769212,-4.83846 14.356442,-12.3985 13.463852,-22.18926 -0.47448,-5.20461 -1.58376,-7.75252 -4.99682,-11.47727 -4.112562,-4.48814 -7.314465,-6.74717 -12.338334,-8.70502 -2.310053,-0.90025 -4.177754,-1.86803 -4.150449,-2.15061 0.05829,-0.60322 2.138397,-1.07587 6.773869,-1.53918 4.517251,-0.4515 5.967838,0.56336 9.543874,6.6771 6.34919,10.85484 10.67237,16.31008 22.0721,27.85184 8.13506,8.23641 10.01784,9.4366 12.66008,8.07024 4.61302,-2.38549 22.24157,-23.19032 27.63302,-32.6119 5.46396,-9.54827 6.71538,-10.64286 11.4668,-10.02971 3.93495,0.50778 6.63503,1.3079 6.43533,1.907 -0.0962,0.28863 -2.26716,1.38786 -4.82433,2.44273 -2.55717,1.05487 -5.49241,2.43894 -6.52274,3.07572 -6.026,3.72428 -11.40251,14.75191 -10.41215,21.35612 0.56344,3.75731 3.99822,10.03629 7.08589,12.95346 5.77483,5.45592 10.804,7.18241 19.24585,6.60702 l 5.29637,-0.361 -1.98148,4.28817 c -1.08981,2.35849 -5.97325,12.72721 -10.85209,23.0416 -4.87883,10.31438 -10.19814,21.6435 -11.82068,25.17582 -10.39812,22.63703 -17.4693,32.85097 -25.45865,36.77365 -3.94853,1.93868 -9.83325,2.26543 -13.9194,0.77287 z"
     id="path2"
     transform="scale(0.75)" />
  <path
     style="fill:#ffe680;stroke-width:0.125"
     d="m 206.27451,108.76149 c -1.56778,-1.81516 -3.36778,-3.79933 -4,-4.40927 -3.88514,-3.74814 -8.89017,-7.106055 -13.83589,-9.282623 -3.30689,-1.455333 -5.30274,-2.059471 -9.31362,-2.819206 -3.22833,-0.611506 -4.3125,-0.907349 -4.3125,-1.176772 0,-0.5173 4.64363,-7.621017 5.76632,-8.821167 0.9082,-0.970871 1.39147,-1.24804 2.51816,-1.444245 1.3936,-0.242686 4.9435,0.223211 8.20944,1.077426 7.53432,1.970625 13.51581,5.066358 17.40762,9.009358 1.97204,1.997981 3.1287,3.61438 4.40537,6.156372 1.72382,3.432347 1.74914,5.300817 0.11363,8.386137 -0.62959,1.1877 -3.94801,6.62001 -4.04554,6.62262 -0.0344,9.2e-4 -1.34522,-1.48347 -2.91299,-3.29863 z"
     id="path3"
     transform="scale(0.75)" />
  <path
     style="fill:#ffe680;stroke-width:0.03125"
     d="m 221.61724,87.857138 c -0.40414,-0.155071 -2.09879,-1.8657 -3.94493,-3.982138 -2.83455,-3.249555 -6.5713,-6.03495 -11.18794,-8.339548 -3.76743,-1.880682 -7.64134,-3.229583 -11.90625,-4.145774 -2.88487,-0.619732 -4.22833,-0.977773 -4.92187,-1.311709 -0.75811,-0.365029 -0.86554,-0.70215 -0.41321,-1.296719 0.24745,-0.325271 1.07826,-1.121919 1.78821,-1.714695 4.42457,-3.694298 11.61818,-5.65987 18.42187,-5.033568 3.26541,0.30059 6.34367,1.277553 8.5625,2.717523 2.27032,1.473379 4.73482,4.567927 6.10648,7.667582 l 0.14352,0.324343 v 4.590346 4.590347 l -0.19082,0.569686 c -0.69394,2.07161 -1.55824,4.089954 -2.17239,5.072996 -0.21015,0.336372 -0.19858,0.324551 -0.28517,0.291328 z"
     id="path4"
     transform="scale(0.75)" />
  <path
     style="fill:#ffe680;stroke-width:0.353553"
     d="m 52.879556,107.21862 c -2.783461,-4.91736 -3.028874,-6.31312 -1.605515,-9.131204 4.740479,-9.38559 13.459746,-14.948839 26.017123,-16.599987 3.646114,-0.479421 5.392391,-0.125942 7.194455,1.45629 1.395596,1.225351 4.660213,7.347917 4.349595,8.157372 -0.144692,0.377066 -0.945819,0.607276 -2.671414,0.767653 -3.447786,0.320438 -6.712018,1.396617 -11.033705,3.637683 -4.775984,2.476649 -8.166187,5.016043 -14.443429,10.818703 -2.790845,2.57985 -5.182127,4.73201 -5.31396,4.78258 -0.131834,0.0506 -1.253751,-1.69953 -2.49315,-3.88909 z"
     id="path5"
     transform="scale(0.75)" />
  <path
     style="fill:#ffe680;stroke-width:0.353553"
     d="m 41.789364,85.294755 c -2.084563,-5.467796 -2.061269,-9.708561 0.07845,-14.281026 1.962147,-4.193011 6.248665,-7.419773 11.721071,-8.82327 3.096115,-0.794054 7.093284,-0.513218 10.58106,0.743414 3.291077,1.18576 9.125312,4.189387 10.679932,5.498327 l 1.164107,0.980136 -1.06066,0.412274 c -0.583364,0.22675 -2.7312,0.783423 -4.772971,1.237051 -9.035322,2.007412 -16.906819,6.402739 -23.562179,13.156772 -1.972526,2.001771 -3.646073,3.639584 -3.718994,3.639584 -0.07292,0 -0.572335,-1.153468 -1.109811,-2.563262 z"
     id="path6"
     transform="scale(0.75)" />
  <path
     style="fill:#ffe680;stroke-width:0.0883883"
     d="m 207.41251,24.653055 c -1.9112,-0.51395 -3.17377,-2.299165 -3.33922,-4.721483 -0.0979,-1.433803 0.34886,-2.587144 1.42176,-3.670162 2.18234,-2.202931 5.39868,-2.467488 7.13945,-0.587249 0.9963,1.076123 1.58394,2.253243 1.76539,3.536339 0.22948,1.622703 -0.51948,3.30877 -1.9108,4.301593 -1.52362,1.087235 -3.56787,1.546679 -5.07658,1.140962 z"
     id="path7"
     transform="scale(0.75)" />
  <path
     style="fill:#ffe680;stroke-width:0.176777"
     d="m 54.86446,25.267088 c -0.47187,-0.145276 -1.193656,-0.588288 -1.699566,-1.043144 -2.26951,-2.040485 -2.227575,-5.363932 0.09784,-7.753796 1.096425,-1.126814 2.015994,-1.596556 3.138204,-1.603084 1.685993,-0.0098 3.952006,1.513421 4.874597,3.276736 0.558714,1.067851 0.548807,2.580868 -0.02473,3.77651 -0.630193,1.313754 -2.170121,2.778259 -3.408563,3.24162 -1.171555,0.438335 -1.821092,0.461273 -2.977779,0.105158 z"
     id="path8"
     transform="scale(0.75)" />
  <path
     style="fill:#ffffff;stroke:#ffcc00;stroke-width:0.133333;paint-order:stroke fill markers"
     d="m 87.470958,136.33829 c -1.218912,-0.11735 -2.529332,-0.50497 -3.720958,-1.10067 -1.042071,-0.52093 -1.637498,-0.9776 -2.306342,-1.76887 -1.101706,-1.30336 -1.87142,-2.93296 -2.271386,-4.80885 -0.151246,-0.70937 -0.167587,-0.91421 -0.169811,-2.12865 -0.002,-1.08709 0.01982,-1.44522 0.114202,-1.875 0.519275,-2.36463 2.244089,-4.87505 4.197243,-6.10897 1.047678,-0.66188 2.186355,-1.00976 3.473897,-1.06131 2.211277,-0.0885 4.487702,0.78415 6.743447,2.5852 3.358524,2.68152 4.623836,6.34127 3.431755,9.92588 -0.475787,1.4307 -1.204107,2.61058 -2.276043,3.68719 -1.565615,1.57243 -3.461669,2.46315 -5.656869,2.65743 -0.788622,0.0698 -0.799209,0.0698 -1.559135,-0.003 z"
     id="path9"
     transform="scale(0.75)" />
  <path
     style="fill:#ffffff;stroke:#ffcc00;stroke-width:0.0942809;paint-order:stroke fill markers"
     d="m 175.16585,136.1778 c -1.6752,-0.17493 -3.31529,-0.82775 -4.51701,-1.79796 -1.40934,-1.13782 -2.31873,-2.94605 -2.69631,-5.36133 -0.13402,-0.85731 -0.14615,-2.82405 -0.0223,-3.61754 0.33275,-2.13206 1.03592,-3.81776 2.09995,-5.03419 1.19399,-1.36499 3.12688,-2.30409 5.28485,-2.56764 0.57901,-0.0707 1.9022,-0.0589 2.52234,0.0225 2.01738,0.26484 4.00194,1.10529 5.54171,2.3469 2.83093,2.28275 2.88041,8.93837 0.0944,12.69588 -1.34375,1.81232 -3.5364,2.99969 -6.09125,3.29854 -0.60498,0.0708 -1.61603,0.0776 -2.21635,0.0149 z"
     id="path10"
     transform="scale(0.75)" />
</svg>
